<svg width="27" height="24" viewBox="0 0 27 24" fill="none" xmlns="http://www.w3.org/2000/svg">
<path d="M23.0173 12.4445L13.0173 22.3485L3.01733 12.4445C2.35774 11.8027 1.83819 11.0312 1.49139 10.1787C1.1446 9.32622 0.978077 8.41114 1.00231 7.49112C1.02655 6.5711 1.24101 5.66606 1.63221 4.83299C2.0234 3.99993 2.58284 3.25688 3.27531 2.65065C3.96778 2.04442 4.77827 1.58813 5.65574 1.31052C6.53322 1.03291 7.45867 0.939988 8.37382 1.03761C9.28897 1.13523 10.174 1.42129 10.9732 1.87775C11.7723 2.33422 12.4683 2.95121 13.0173 3.68988C13.5687 2.95657 14.2655 2.34497 15.0641 1.89335C15.8627 1.44173 16.746 1.15981 17.6586 1.06524C18.5712 0.970664 19.4934 1.06547 20.3677 1.34373C21.2419 1.62199 22.0494 2.07771 22.7394 2.68236C23.4294 3.28701 23.9872 4.02759 24.3779 4.85773C24.7685 5.68788 24.9837 6.58972 25.0097 7.50682C25.0358 8.42392 24.8723 9.33653 24.5295 10.1875C24.1867 11.0386 23.6719 11.8096 23.0173 12.4525" stroke="#191847" stroke-width="2" stroke-linecap="round" stroke-linejoin="round"/>
</svg>
